<?xml version="1.0" encoding="utf-8"?>
<!-- Generator: Adobe Illustrator 28.2.0, SVG Export Plug-In . SVG Version: 6.00 Build 0)  -->
<svg version="1.1" id="Layer_1" xmlns="http://www.w3.org/2000/svg" xmlns:xlink="http://www.w3.org/1999/xlink" x="0px" y="0px"
	 viewBox="0 0 16 16" style="enable-background:new 0 0 16 16;" xml:space="preserve">
<style type="text/css">
	.st0{fill:#081824;}
	.st1{fill:#FCD200;}
</style>
<rect class="st0" width="16" height="16"/>
<g>
	<path class="st1" d="M14.96,8c-0.12,4.09-3.84,6.66-8.64,7.14c-0.25-0.24-0.48-0.5-0.7-0.76c11.02-0.66,11.01-12.11,0-12.77
		c0.22-0.26,0.46-0.51,0.7-0.76C11.12,1.34,14.85,3.92,14.96,8z"/>
	<path class="st1" d="M12.82,8c0.05,2.89-3.13,5.44-6.98,5.55H4.97c-0.18-0.25-0.34-0.51-0.49-0.78c2.66-0.01,5.02-0.5,6.47-2.46
		c1.6-2.07,0.69-4.96-1.98-6.26c-1.19-0.7-2.91-0.82-4.5-0.82c0.15-0.27,0.32-0.54,0.5-0.8h0.48C9.46,2.4,12.87,5,12.82,8z"/>
	<path class="st1" d="M10.67,8c0.03,2.05-2.18,3.83-4.9,3.93H4.05c-0.12-0.27-0.23-0.54-0.33-0.82c0.68,0,1.72,0.02,2,0.01
		C7.89,11.03,9.62,9.63,9.6,8c0.02-1.7-1.86-3.14-4.14-3.13H3.73c0.1-0.28,0.2-0.54,0.33-0.81h1.41C8.31,4.04,10.7,5.87,10.67,8z"/>
	<path class="st1" d="M8.53,8c-0.22,2.33-2.64,2.39-5.05,2.33c-0.07-0.27-0.13-0.54-0.17-0.82C4.97,9.52,7.38,9.76,7.46,8
		C7.37,6.23,4.98,6.48,3.31,6.49c0.04-0.28,0.1-0.55,0.17-0.82C5.89,5.6,8.33,5.7,8.53,8z"/>
	<path class="st1" d="M1.19,8.85c1.12-0.36,3.13-0.36,4.25,0.01c0.09,0.03,0.18-0.04,0.14-0.11c-0.29-0.46-0.29-1.04,0-1.5
		c0.04-0.07-0.05-0.14-0.14-0.11C4.33,7.51,2.32,7.52,1.2,7.16C1.11,7.13,1.02,7.2,1.06,7.27c0.28,0.45,0.27,1.03-0.01,1.48
		C1.01,8.81,1.1,8.88,1.19,8.85z"/>
</g>
</svg>
